<svg width="316" height="72" viewBox="0 0 316 72" fill="none" xmlns="http://www.w3.org/2000/svg">
<path d="M22.2188 72.0001H0V0H23.2031C30.1875 0 36.1641 1.44141 41.1329 4.32422C46.1016 7.1836 49.9102 11.2969 52.5586 16.6641C55.2071 22.0078 56.5313 28.4063 56.5313 35.8594C56.5313 43.3594 55.1954 49.8165 52.5235 55.2305C49.8516 60.6212 45.961 64.7696 40.8516 67.6758C35.7422 70.5587 29.5313 72.0001 22.2188 72.0001ZM8.71876 64.2657H21.6563C27.6094 64.2657 32.543 63.1172 36.4571 60.8204C40.3711 58.5235 43.2891 55.254 45.211 51.0118C47.1329 46.7696 48.0938 41.7188 48.0938 35.8594C48.0938 30.0469 47.1446 25.043 45.2461 20.8477C43.3477 16.6289 40.5118 13.3945 36.7383 11.1445C32.9649 8.8711 28.2657 7.73438 22.6406 7.73438H8.71876V64.2657Z" fill="#E5E5E5"/>
<path d="M71.1563 72.0001V0H114.609V7.73438H79.8751V32.0625H112.359V39.7969H79.8751V64.2657H115.172V72.0001H71.1563Z" fill="#E5E5E5"/>
<path d="M130.324 72.0001V0H154.653C160.301 0 164.918 1.01953 168.504 3.0586C172.113 5.07422 174.785 7.8047 176.52 11.25C178.254 14.6953 179.121 18.5391 179.121 22.7813C179.121 27.0235 178.254 30.8789 176.52 34.3477C174.809 37.8164 172.16 40.5821 168.574 42.6446C164.988 44.6836 160.395 45.7032 154.793 45.7032H137.356V37.9688H154.512C158.379 37.9688 161.485 37.3008 163.828 35.9649C166.172 34.6289 167.871 32.8242 168.926 30.5508C170.004 28.2539 170.543 25.6641 170.543 22.7813C170.543 19.8985 170.004 17.3203 168.926 15.0469C167.871 12.7734 166.16 10.9922 163.793 9.70314C161.426 8.39063 158.285 7.73438 154.371 7.73438H139.043V72.0001H130.324Z" fill="#E5E5E5"/>
<path d="M261.642 7.73438V0H315.642V7.73438H293.001V72.0001H284.283V7.73438H261.642Z" fill="#E5E5E5"/>
<path fill-rule="evenodd" clip-rule="evenodd" d="M209.36 0.843689C208.502 0.843689 207.679 1.18445 207.073 1.79102L188.119 20.7445C187.513 21.351 187.172 22.1737 187.172 23.0315V49.8122C187.172 50.67 187.513 51.4927 188.119 52.0992L207.073 71.0527C207.679 71.6592 208.502 72 209.36 72H236.141C236.998 72 237.821 71.6592 238.428 71.0527L257.381 52.0992C257.988 51.4927 258.328 50.67 258.328 49.8122V23.0315C258.328 22.1737 257.988 21.351 257.381 20.7445L238.428 1.79102C237.821 1.18445 236.998 0.843689 236.141 0.843689H209.36ZM222.75 19.4653C224.537 19.4653 225.985 20.9134 225.985 22.6997V33.1876H236.473C238.259 33.1876 239.707 34.6357 239.707 36.422C239.707 38.2083 238.259 39.6564 236.473 39.6564H225.985V50.1443C225.985 51.9306 224.537 53.3787 222.75 53.3787C220.964 53.3787 219.516 51.9306 219.516 50.1443V39.6564H209.028C207.242 39.6564 205.794 38.2083 205.794 36.422C205.794 34.6357 207.242 33.1876 209.028 33.1876H219.516V22.6997C219.516 20.9134 220.964 19.4653 222.75 19.4653Z" fill="#0095DD"/>
</svg>
