<svg width="316" height="72" viewBox="0 0 316 72" fill="none" xmlns="http://www.w3.org/2000/svg">
<path fill-rule="evenodd" clip-rule="evenodd" d="M0 72.0003H22.2188C29.5313 72.0003 35.7422 70.5589 40.8516 67.6761C45.961 64.7698 49.8516 60.6214 52.5235 55.2308C55.1954 49.8167 56.5313 43.3597 56.5313 35.8597C56.5313 28.4065 55.2071 22.0081 52.5586 16.6643C49.9102 11.2971 46.1016 7.18384 41.1329 4.32447C36.1641 1.44165 30.1875 0.000244141 23.2031 0.000244141H0V72.0003ZM21.6563 64.2659H8.71876V7.73463H22.6406C28.2657 7.73463 32.9649 8.87135 36.7383 11.1448C40.5118 13.3948 43.3477 16.6292 45.2461 20.8479C47.1446 25.0432 48.0938 30.0471 48.0938 35.8597C48.0938 41.719 47.1329 46.7698 45.211 51.012C43.2891 55.2542 40.3711 58.5237 36.4571 60.8206C32.543 63.1175 27.6094 64.2659 21.6563 64.2659Z" fill="#E5E5E5"/>
<path d="M71.1563 0.000244141V72.0003H115.172V64.2659H79.8751V39.7972H112.359V32.0628H79.8751V7.73463H114.609V0.000244141H71.1563Z" fill="#E5E5E5"/>
<path fill-rule="evenodd" clip-rule="evenodd" d="M130.324 72.0003V0.000244141H154.653C160.301 0.000244141 164.918 1.01978 168.504 3.05884C172.113 5.07447 174.785 7.80494 176.52 11.2503C178.254 14.6956 179.121 18.5393 179.121 22.7815C179.121 27.0237 178.254 30.8792 176.52 34.3479C174.809 37.8167 172.16 40.5823 168.574 42.6448C164.988 44.6839 160.395 45.7034 154.793 45.7034H139.043V72.0003H130.324ZM154.512 37.969H139.043V7.73463H154.371C158.285 7.73463 161.426 8.39088 163.793 9.70338C166.16 10.9924 167.871 12.7737 168.926 15.0471C170.004 17.3206 170.543 19.8987 170.543 22.7815C170.543 25.6643 170.004 28.2542 168.926 30.5511C167.871 32.8245 166.172 34.6292 163.828 35.9651C161.485 37.3011 158.379 37.969 154.512 37.969Z" fill="#E5E5E5"/>
<path d="M261.642 0.000244141V7.73463H284.283V72.0003H293.001V7.73463H315.642V0.000244141H261.642Z" fill="#E5E5E5"/>
<path fill-rule="evenodd" clip-rule="evenodd" d="M207.215 0.958804C207.829 0.345048 208.661 0.000244141 209.529 0.000244141H236.627C237.495 0.000244141 238.328 0.345048 238.941 0.958804L258.12 20.137C258.733 20.7507 259.078 21.5832 259.078 22.4512V49.5493C259.078 50.4173 258.733 51.2497 258.12 51.8635L238.941 71.0417C238.328 71.6554 237.495 72.0002 236.627 72.0002H209.529C208.661 72.0002 207.829 71.6554 207.215 71.0417L188.037 51.8635C187.423 51.2497 187.078 50.4173 187.078 49.5493V22.4512C187.078 21.5832 187.423 20.7507 188.037 20.137L207.215 0.958804ZM241 36.0002C241 45.9414 232.941 54.0002 223 54.0002C213.059 54.0002 205 45.9414 205 36.0002C205 26.0591 213.059 18.0002 223 18.0002C232.941 18.0002 241 26.0591 241 36.0002Z" fill="#006837"/>
</svg>
