<svg width="316" height="72" viewBox="0 0 316 72" fill="none" xmlns="http://www.w3.org/2000/svg">
<path fill-rule="evenodd" clip-rule="evenodd" d="M0 72.0001H22.2188C29.5313 72.0001 35.7422 70.5587 40.8516 67.6759C45.961 64.7697 49.8516 60.6212 52.5235 55.2306C55.1954 49.8165 56.5313 43.3595 56.5313 35.8595C56.5313 28.4063 55.2071 22.0079 52.5586 16.6641C49.9102 11.2969 46.1016 7.18366 41.1329 4.32429C36.1641 1.44147 30.1875 6.10352e-05 23.2031 6.10352e-05H0V72.0001ZM21.6563 64.2657H8.71876V7.73444H22.6406C28.2657 7.73444 32.9649 8.87116 36.7383 11.1446C40.5118 13.3946 43.3477 16.629 45.2461 20.8477C47.1446 25.0431 48.0938 30.047 48.0938 35.8595C48.0938 41.7189 47.1329 46.7696 45.211 51.0118C43.2891 55.254 40.3711 58.5236 36.4571 60.8204C32.543 63.1173 27.6094 64.2657 21.6563 64.2657Z" fill="#E5E5E5"/>
<path d="M71.1563 6.10352e-05V72.0001H115.172V64.2657H79.8751V39.797H112.359V32.0626H79.8751V7.73444H114.609V6.10352e-05H71.1563Z" fill="#E5E5E5"/>
<path fill-rule="evenodd" clip-rule="evenodd" d="M130.324 72.0001V6.10352e-05H154.653C160.301 6.10352e-05 164.918 1.01959 168.504 3.05866C172.113 5.07429 174.785 7.80476 176.52 11.2501C178.254 14.6954 179.121 18.5391 179.121 22.7813C179.121 27.0235 178.254 30.879 176.52 34.3478C174.809 37.8165 172.16 40.5821 168.574 42.6446C164.988 44.6837 160.395 45.7032 154.793 45.7032H139.043V72.0001H130.324ZM154.512 37.9688H139.043V7.73444H154.371C158.285 7.73444 161.426 8.39069 163.793 9.7032C166.16 10.9923 167.871 12.7735 168.926 15.0469C170.004 17.3204 170.543 19.8985 170.543 22.7813C170.543 25.6641 170.004 28.254 168.926 30.5509C167.871 32.8243 166.172 34.629 163.828 35.9649C161.485 37.3009 158.379 37.9688 154.512 37.9688Z" fill="#E5E5E5"/>
<path d="M261.642 6.10352e-05V7.73444H284.283V72.0001H293.001V7.73444H315.642V6.10352e-05H261.642Z" fill="#E5E5E5"/>
<path fill-rule="evenodd" clip-rule="evenodd" d="M207.215 0.958621C207.829 0.344865 208.661 6.10352e-05 209.529 6.10352e-05H236.627C237.495 6.10352e-05 238.328 0.344865 238.941 0.95862L258.12 20.1368C258.733 20.7506 259.078 21.583 259.078 22.451V49.5491C259.078 50.4171 258.733 51.2496 258.12 51.8633L238.941 71.0415C238.328 71.6553 237.495 72.0001 236.627 72.0001H209.529C208.661 72.0001 207.829 71.6553 207.215 71.0415L188.037 51.8633C187.423 51.2496 187.078 50.4171 187.078 49.5491V22.451C187.078 21.583 187.423 20.7506 188.037 20.1368L207.215 0.958621ZM241 36.0001C241 45.9412 232.941 54.0001 223 54.0001C213.059 54.0001 205 45.9412 205 36.0001C205 26.0589 213.059 18.0001 223 18.0001C232.941 18.0001 241 26.0589 241 36.0001Z" fill="#FF5000"/>
</svg>
