<svg width="316" height="72" viewBox="0 0 316 72" fill="none" xmlns="http://www.w3.org/2000/svg">
<path fill-rule="evenodd" clip-rule="evenodd" d="M0 72.0004H22.2188C29.5313 72.0004 35.7422 70.559 40.8516 67.6761C45.961 64.7699 49.8516 60.6215 52.5235 55.2308C55.1954 49.8168 56.5313 43.3597 56.5313 35.8597C56.5313 28.4066 55.2071 22.0081 52.5586 16.6644C49.9102 11.2972 46.1016 7.1839 41.1329 4.32453C36.1641 1.44171 30.1875 0.000305176 23.2031 0.000305176H0V72.0004ZM21.6563 64.266H8.71876V7.73469H22.6406C28.2657 7.73469 32.9649 8.87141 36.7383 11.1448C40.5118 13.3948 43.3477 16.6292 45.2461 20.848C47.1446 25.0433 48.0938 30.0472 48.0938 35.8597C48.0938 41.7191 47.1329 46.7699 45.211 51.0121C43.2891 55.2543 40.3711 58.5238 36.4571 60.8207C32.543 63.1176 27.6094 64.266 21.6563 64.266Z" fill="#E5E5E5"/>
<path d="M71.1563 0.000305176V72.0004H115.172V64.266H79.8751V39.7972H112.359V32.0628H79.8751V7.73469H114.609V0.000305176H71.1563Z" fill="#E5E5E5"/>
<path fill-rule="evenodd" clip-rule="evenodd" d="M130.324 72.0004V0.000305176H154.653C160.301 0.000305176 164.918 1.01984 168.504 3.0589C172.113 5.07453 174.785 7.805 176.52 11.2503C178.254 14.6956 179.121 18.5394 179.121 22.7816C179.121 27.0238 178.254 30.8792 176.52 34.348C174.809 37.8167 172.16 40.5824 168.574 42.6449C164.988 44.6839 160.395 45.7035 154.793 45.7035H139.043V72.0004H130.324ZM154.512 37.9691H139.043V7.73469H154.371C158.285 7.73469 161.426 8.39094 163.793 9.70344C166.16 10.9925 167.871 12.7738 168.926 15.0472C170.004 17.3206 170.543 19.8988 170.543 22.7816C170.543 25.6644 170.004 28.2542 168.926 30.5511C167.871 32.8246 166.172 34.6292 163.828 35.9652C161.485 37.3011 158.379 37.9691 154.512 37.9691Z" fill="#E5E5E5"/>
<path d="M261.642 0.000305176V7.73469H284.283V72.0004H293.001V7.73469H315.642V0.000305176H261.642Z" fill="#E5E5E5"/>
<path fill-rule="evenodd" clip-rule="evenodd" d="M207.215 0.958865C207.829 0.345109 208.661 0.000305176 209.529 0.000305176H236.627C237.495 0.000305176 238.328 0.345109 238.941 0.958865L258.12 20.137C258.733 20.7508 259.078 21.5832 259.078 22.4512V49.5494C259.078 50.4174 258.733 51.2498 258.12 51.8636L238.941 71.0417C238.328 71.6555 237.495 72.0003 236.627 72.0003H209.529C208.661 72.0003 207.829 71.6555 207.215 71.0417L188.037 51.8636C187.423 51.2498 187.078 50.4174 187.078 49.5494V22.4512C187.078 21.5832 187.423 20.7508 188.037 20.137L207.215 0.958865ZM241 36.0003C241 45.9414 232.941 54.0003 223 54.0003C213.059 54.0003 205 45.9414 205 36.0003C205 26.0592 213.059 18.0003 223 18.0003C232.941 18.0003 241 26.0592 241 36.0003Z" fill="#FAA400"/>
</svg>
