<svg width="316" height="72" viewBox="0 0 316 72" fill="none" xmlns="http://www.w3.org/2000/svg">
<path fill-rule="evenodd" clip-rule="evenodd" d="M0 72.0003H22.2188C29.5313 72.0003 35.7422 70.5588 40.8516 67.676C45.961 64.7698 49.8516 60.6213 52.5235 55.2307C55.1954 49.8166 56.5313 43.3596 56.5313 35.8596C56.5313 28.4065 55.2071 22.008 52.5586 16.6643C49.9102 11.2971 46.1016 7.18378 41.1329 4.32441C36.1641 1.44159 30.1875 0.000183105 23.2031 0.000183105H0V72.0003ZM21.6563 64.2659H8.71876V7.73457H22.6406C28.2657 7.73457 32.9649 8.87128 36.7383 11.1447C40.5118 13.3947 43.3477 16.6291 45.2461 20.8479C47.1446 25.0432 48.0938 30.0471 48.0938 35.8596C48.0938 41.719 47.1329 46.7698 45.211 51.0119C43.2891 55.2541 40.3711 58.5237 36.4571 60.8206C32.543 63.1174 27.6094 64.2659 21.6563 64.2659Z" fill="#0F0E12"/>
<path d="M71.1563 0.000183105V72.0003H115.172V64.2659H79.8751V39.7971H112.359V32.0627H79.8751V7.73457H114.609V0.000183105H71.1563Z" fill="#0F0E12"/>
<path fill-rule="evenodd" clip-rule="evenodd" d="M130.324 72.0003V0.000183105H154.653C160.301 0.000183105 164.918 1.01971 168.504 3.05878C172.113 5.07441 174.785 7.80488 176.52 11.2502C178.254 14.6955 179.121 18.5393 179.121 22.7815C179.121 27.0236 178.254 30.8791 176.52 34.3479C174.809 37.8166 172.16 40.5823 168.574 42.6448C164.988 44.6838 160.395 45.7034 154.793 45.7034H139.043V72.0003H130.324ZM154.512 37.969H139.043V7.73457H154.371C158.285 7.73457 161.426 8.39082 163.793 9.70332C166.16 10.9924 167.871 12.7736 168.926 15.0471C170.004 17.3205 170.543 19.8986 170.543 22.7815C170.543 25.6643 170.004 28.2541 168.926 30.551C167.871 32.8244 166.172 34.6291 163.828 35.9651C161.485 37.301 158.379 37.969 154.512 37.969Z" fill="#0F0E12"/>
<path d="M261.642 0.000183105V7.73457H284.283V72.0003H293.001V7.73457H315.642V0.000183105H261.642Z" fill="#0F0E12"/>
<path fill-rule="evenodd" clip-rule="evenodd" d="M207.215 0.958743C207.829 0.344987 208.661 0.000183105 209.529 0.000183105H236.627C237.495 0.000183105 238.328 0.344987 238.941 0.958743L258.12 20.1369C258.733 20.7507 259.078 21.5831 259.078 22.4511V49.5493C259.078 50.4173 258.733 51.2497 258.12 51.8634L238.941 71.0416C238.328 71.6554 237.495 72.0002 236.627 72.0002H209.529C208.661 72.0002 207.829 71.6554 207.215 71.0416L188.037 51.8634C187.423 51.2497 187.078 50.4173 187.078 49.5493V22.4511C187.078 21.5831 187.423 20.7507 188.037 20.1369L207.215 0.958743ZM241 36.0002C241 45.9413 232.941 54.0002 223 54.0002C213.059 54.0002 205 45.9413 205 36.0002C205 26.0591 213.059 18.0002 223 18.0002C232.941 18.0002 241 26.0591 241 36.0002Z" fill="#0095DD"/>
</svg>
