<svg width="316" height="72" viewBox="0 0 316 72" fill="none" xmlns="http://www.w3.org/2000/svg">
<path fill-rule="evenodd" clip-rule="evenodd" d="M0 72.0005H22.2188C29.5313 72.0005 35.7422 70.5591 40.8516 67.6763C45.961 64.77 49.8516 60.6216 52.5235 55.2309C55.1954 49.8169 56.5313 43.3598 56.5313 35.8598C56.5313 28.4067 55.2071 22.0083 52.5586 16.6645C49.9102 11.2973 46.1016 7.18403 41.1329 4.32465C36.1641 1.44184 30.1875 0.000427246 23.2031 0.000427246H0V72.0005ZM21.6563 64.2661H8.71876V7.73481H22.6406C28.2657 7.73481 32.9649 8.87153 36.7383 11.145C40.5118 13.395 43.3477 16.6293 45.2461 20.8481C47.1446 25.0434 48.0938 30.0473 48.0938 35.8598C48.0938 41.7192 47.1329 46.77 45.211 51.0122C43.2891 55.2544 40.3711 58.5239 36.4571 60.8208C32.543 63.1177 27.6094 64.2661 21.6563 64.2661Z" fill="#0F0E12"/>
<path d="M71.1563 0.000427246V72.0005H115.172V64.2661H79.8751V39.7973H112.359V32.063H79.8751V7.73481H114.609V0.000427246H71.1563Z" fill="#0F0E12"/>
<path fill-rule="evenodd" clip-rule="evenodd" d="M130.324 72.0005V0.000427246H154.653C160.301 0.000427246 164.918 1.01996 168.504 3.05902C172.113 5.07465 174.785 7.80512 176.52 11.2504C178.254 14.6958 179.121 18.5395 179.121 22.7817C179.121 27.0239 178.254 30.8794 176.52 34.3481C174.809 37.8169 172.16 40.5825 168.574 42.645C164.988 44.6841 160.395 45.7036 154.793 45.7036H139.043V72.0005H130.324ZM154.512 37.9692H139.043V7.73481H154.371C158.285 7.73481 161.426 8.39106 163.793 9.70356C166.16 10.9926 167.871 12.7739 168.926 15.0473C170.004 17.3208 170.543 19.8989 170.543 22.7817C170.543 25.6645 170.004 28.2544 168.926 30.5512C167.871 32.8247 166.172 34.6294 163.828 35.9653C161.485 37.3012 158.379 37.9692 154.512 37.9692Z" fill="#0F0E12"/>
<path d="M261.642 0.000427246V7.73481H284.283V72.0005H293.001V7.73481H315.642V0.000427246H261.642Z" fill="#0F0E12"/>
<path fill-rule="evenodd" clip-rule="evenodd" d="M207.215 0.958987C207.829 0.345231 208.661 0.000427246 209.529 0.000427246H236.627C237.495 0.000427246 238.328 0.345231 238.941 0.958987L258.12 20.1372C258.733 20.7509 259.078 21.5834 259.078 22.4513V49.5495C259.078 50.4175 258.733 51.2499 258.12 51.8637L238.941 71.0419C238.328 71.6556 237.495 72.0004 236.627 72.0004H209.529C208.661 72.0004 207.829 71.6556 207.215 71.0419L188.037 51.8637C187.423 51.2499 187.078 50.4175 187.078 49.5495V22.4513C187.078 21.5834 187.423 20.7509 188.037 20.1372L207.215 0.958987ZM241 36.0004C241 45.9416 232.941 54.0004 223 54.0004C213.059 54.0004 205 45.9416 205 36.0004C205 26.0593 213.059 18.0004 223 18.0004C232.941 18.0004 241 26.0593 241 36.0004Z" fill="#B2B2B2"/>
</svg>
