<svg width="316" height="72" viewBox="0 0 316 72" fill="none" xmlns="http://www.w3.org/2000/svg">
<path fill-rule="evenodd" clip-rule="evenodd" d="M0 72.0002H22.2188C29.5313 72.0002 35.7422 70.5588 40.8516 67.676C45.961 64.7697 49.8516 60.6213 52.5235 55.2306C55.1954 49.8166 56.5313 43.3595 56.5313 35.8595C56.5313 28.4064 55.2071 22.008 52.5586 16.6642C49.9102 11.297 46.1016 7.18372 41.1329 4.32435C36.1641 1.44153 30.1875 0.00012207 23.2031 0.00012207H0V72.0002ZM21.6563 64.2658H8.71876V7.7345H22.6406C28.2657 7.7345 32.9649 8.87122 36.7383 11.1447C40.5118 13.3947 43.3477 16.629 45.2461 20.8478C47.1446 25.0431 48.0938 30.047 48.0938 35.8595C48.0938 41.7189 47.1329 46.7697 45.211 51.0119C43.2891 55.2541 40.3711 58.5236 36.4571 60.8205C32.543 63.1174 27.6094 64.2658 21.6563 64.2658Z" fill="#0F0E12"/>
<path d="M71.1563 0.00012207V72.0002H115.172V64.2658H79.8751V39.797H112.359V32.0627H79.8751V7.7345H114.609V0.00012207H71.1563Z" fill="#0F0E12"/>
<path fill-rule="evenodd" clip-rule="evenodd" d="M130.324 72.0002V0.00012207H154.653C160.301 0.00012207 164.918 1.01965 168.504 3.05872C172.113 5.07435 174.785 7.80482 176.52 11.2501C178.254 14.6954 179.121 18.5392 179.121 22.7814C179.121 27.0236 178.254 30.8791 176.52 34.3478C174.809 37.8166 172.16 40.5822 168.574 42.6447C164.988 44.6838 160.395 45.7033 154.793 45.7033H139.043V72.0002H130.324ZM154.512 37.9689H139.043V7.7345H154.371C158.285 7.7345 161.426 8.39076 163.793 9.70326C166.16 10.9923 167.871 12.7736 168.926 15.047C170.004 17.3205 170.543 19.8986 170.543 22.7814C170.543 25.6642 170.004 28.2541 168.926 30.5509C167.871 32.8244 166.172 34.6291 163.828 35.965C161.485 37.3009 158.379 37.9689 154.512 37.9689Z" fill="#0F0E12"/>
<path d="M261.642 0.00012207V7.7345H284.283V72.0002H293.001V7.7345H315.642V0.00012207H261.642Z" fill="#0F0E12"/>
<path fill-rule="evenodd" clip-rule="evenodd" d="M207.215 0.958682C207.829 0.344926 208.661 0.00012207 209.529 0.00012207H236.627C237.495 0.00012207 238.328 0.344926 238.941 0.958682L258.12 20.1369C258.733 20.7506 259.078 21.583 259.078 22.451V49.5492C259.078 50.4172 258.733 51.2496 258.12 51.8634L238.941 71.0416C238.328 71.6553 237.495 72.0001 236.627 72.0001H209.529C208.661 72.0001 207.829 71.6553 207.215 71.0416L188.037 51.8634C187.423 51.2496 187.078 50.4172 187.078 49.5492V22.451C187.078 21.583 187.423 20.7506 188.037 20.1369L207.215 0.958682ZM241 36.0001C241 45.9412 232.941 54.0001 223 54.0001C213.059 54.0001 205 45.9412 205 36.0001C205 26.059 213.059 18.0001 223 18.0001C232.941 18.0001 241 26.059 241 36.0001Z" fill="#7832B4"/>
</svg>
