<svg width="316" height="72" viewBox="0 0 316 72" fill="none" xmlns="http://www.w3.org/2000/svg">
<path fill-rule="evenodd" clip-rule="evenodd" d="M0 72.0004H22.2188C29.5313 72.0004 35.7422 70.559 40.8516 67.6762C45.961 64.77 49.8516 60.6215 52.5235 55.2309C55.1954 49.8168 56.5313 43.3598 56.5313 35.8598C56.5313 28.4066 55.2071 22.0082 52.5586 16.6644C49.9102 11.2972 46.1016 7.18397 41.1329 4.32459C36.1641 1.44177 30.1875 0.000366211 23.2031 0.000366211H0V72.0004ZM21.6563 64.2661H8.71876V7.73475H22.6406C28.2657 7.73475 32.9649 8.87147 36.7383 11.1449C40.5118 13.3949 43.3477 16.6293 45.2461 20.848C47.1446 25.0434 48.0938 30.0473 48.0938 35.8598C48.0938 41.7192 47.1329 46.7699 45.211 51.0121C43.2891 55.2543 40.3711 58.5239 36.4571 60.8207C32.543 63.1176 27.6094 64.2661 21.6563 64.2661Z" fill="#0F0E12"/>
<path d="M71.1563 0.000366211V72.0004H115.172V64.2661H79.8751V39.7973H112.359V32.0629H79.8751V7.73475H114.609V0.000366211H71.1563Z" fill="#0F0E12"/>
<path fill-rule="evenodd" clip-rule="evenodd" d="M130.324 72.0004V0.000366211H154.653C160.301 0.000366211 164.918 1.0199 168.504 3.05896C172.113 5.07459 174.785 7.80506 176.52 11.2504C178.254 14.6957 179.121 18.5394 179.121 22.7816C179.121 27.0238 178.254 30.8793 176.52 34.3481C174.809 37.8168 172.16 40.5824 168.574 42.6449C164.988 44.684 160.395 45.7035 154.793 45.7035H139.043V72.0004H130.324ZM154.512 37.9692H139.043V7.73475H154.371C158.285 7.73475 161.426 8.391 163.793 9.7035C166.16 10.9926 167.871 12.7738 168.926 15.0473C170.004 17.3207 170.543 19.8988 170.543 22.7816C170.543 25.6645 170.004 28.2543 168.926 30.5512C167.871 32.8246 166.172 34.6293 163.828 35.9652C161.485 37.3012 158.379 37.9692 154.512 37.9692Z" fill="#0F0E12"/>
<path d="M261.642 0.000366211V7.73475H284.283V72.0004H293.001V7.73475H315.642V0.000366211H261.642Z" fill="#0F0E12"/>
<path fill-rule="evenodd" clip-rule="evenodd" d="M207.215 0.958926C207.829 0.34517 208.661 0.000366211 209.529 0.000366211H236.627C237.495 0.000366211 238.328 0.34517 238.941 0.958926L258.12 20.1371C258.733 20.7509 259.078 21.5833 259.078 22.4513V49.5495C259.078 50.4174 258.733 51.2499 258.12 51.8636L238.941 71.0418C238.328 71.6556 237.495 72.0004 236.627 72.0004H209.529C208.661 72.0004 207.829 71.6556 207.215 71.0418L188.037 51.8636C187.423 51.2499 187.078 50.4174 187.078 49.5495V22.4513C187.078 21.5833 187.423 20.7509 188.037 20.1371L207.215 0.958926ZM241 36.0004C241 45.9415 232.941 54.0004 223 54.0004C213.059 54.0004 205 45.9415 205 36.0004C205 26.0592 213.059 18.0004 223 18.0004C232.941 18.0004 241 26.0592 241 36.0004Z" fill="#F12321"/>
</svg>
