<svg width="316" height="72" viewBox="0 0 316 72" fill="none" xmlns="http://www.w3.org/2000/svg">
<path fill-rule="evenodd" clip-rule="evenodd" d="M0 72.0001H22.2188C29.5313 72.0001 35.7422 70.5587 40.8516 67.6758C45.961 64.7696 49.8516 60.6212 52.5235 55.2305C55.1954 49.8165 56.5313 43.3594 56.5313 35.8594C56.5313 28.4063 55.2071 22.0078 52.5586 16.6641C49.9102 11.2969 46.1016 7.1836 41.1329 4.32422C36.1641 1.44141 30.1875 0 23.2031 0H0V72.0001ZM21.6563 64.2657H8.71876V7.73438H22.6406C28.2657 7.73438 32.9649 8.8711 36.7383 11.1445C40.5118 13.3945 43.3477 16.6289 45.2461 20.8477C47.1446 25.043 48.0938 30.0469 48.0938 35.8594C48.0938 41.7188 47.1329 46.7696 45.211 51.0118C43.2891 55.254 40.3711 58.5235 36.4571 60.8204C32.543 63.1172 27.6094 64.2657 21.6563 64.2657ZM71.1563 0V72.0001H115.172V64.2657H79.8751V39.7969H112.359V32.0625H79.8751V7.73438H114.609V0H71.1563ZM130.324 72.0001V0H154.653C160.301 0 164.918 1.01953 168.504 3.0586C172.113 5.07422 174.785 7.8047 176.52 11.25C178.254 14.6953 179.121 18.5391 179.121 22.7813C179.121 27.0235 178.254 30.8789 176.52 34.3477C174.809 37.8164 172.16 40.5821 168.574 42.6446C164.988 44.6836 160.395 45.7032 154.793 45.7032H139.043V72.0001H130.324ZM154.512 37.9688H139.043V7.73438H154.371C158.285 7.73438 161.426 8.39063 163.793 9.70314C166.16 10.9922 167.871 12.7734 168.926 15.0469C170.004 17.3203 170.543 19.8985 170.543 22.7813C170.543 25.6641 170.004 28.2539 168.926 30.5508C167.871 32.8242 166.172 34.6289 163.828 35.9649C161.485 37.3008 158.379 37.9688 154.512 37.9688ZM261.642 0V7.73438H284.283V72.0001H293.001V7.73438H315.642V0H261.642ZM207.073 1.79101C207.679 1.18445 208.502 0.843682 209.36 0.843682H236.141C236.998 0.843682 237.821 1.18445 238.428 1.79101L257.381 20.7445C257.988 21.351 258.328 22.1737 258.328 23.0315V49.8122C258.328 50.67 257.988 51.4927 257.381 52.0992L238.428 71.0527C237.821 71.6592 236.998 72 236.141 72H209.36C208.502 72 207.679 71.6592 207.073 71.0527L188.119 52.0992C187.513 51.4927 187.172 50.67 187.172 49.8122V23.0315C187.172 22.1737 187.513 21.351 188.119 20.7445L207.073 1.79101ZM225.985 22.6997C225.985 20.9134 224.536 19.4653 222.75 19.4653C220.964 19.4653 219.516 20.9134 219.516 22.6997V33.1876H209.028C207.242 33.1876 205.793 34.6357 205.793 36.422C205.793 38.2083 207.242 39.6564 209.028 39.6564H219.516V50.1443C219.516 51.9306 220.964 53.3787 222.75 53.3787C224.536 53.3787 225.985 51.9306 225.985 50.1443V39.6564H236.472C238.259 39.6564 239.707 38.2083 239.707 36.422C239.707 34.6357 238.259 33.1876 236.472 33.1876H225.985V22.6997Z" fill="#0F0E12"/>
</svg>
